<svg xmlns="http://www.w3.org/2000/svg" viewBox="0 0 64 64" width="64" height="64"><style>tspan { white-space:pre }.shp0 { fill: #ffffff } </style><path fill-rule="evenodd" class="shp0" d="M8.72 8L56 55.28L52.61 58.67L44.83 50.88L43.68 49.76C40.08 51.2 36.13 52 32 52C18.67 52 7.28 43.71 2.67 32C4.75 26.67 8.21 22.13 12.61 18.67L5.33 11.39M18.67 32C18.67 33.75 19.01 35.48 19.68 37.1C20.35 38.72 21.33 40.19 22.57 41.43C23.81 42.67 25.28 43.65 26.9 44.32C28.52 44.99 30.25 45.33 32 45.33C34.11 45.33 36.08 44.8 37.87 43.92L33.73 39.79C33.17 39.92 32.59 40 32 40C30.95 40 29.91 39.79 28.94 39.39C27.97 38.99 27.09 38.4 26.34 37.66C25.6 36.91 25.01 36.03 24.61 35.06C24.21 34.09 24 33.05 24 32C24 31.39 24.08 30.83 24.21 30.27L20.08 26.13C19.2 27.92 18.67 29.89 18.67 32ZM27.12 19.6L21.33 13.87C24.69 12.67 28.27 12 32 12C45.33 12 56.72 20.29 61.33 32C59.39 36.96 56.19 41.33 52.19 44.67L44.37 36.85C44.99 35.36 45.33 33.71 45.33 32C45.33 30.25 44.99 28.52 44.32 26.9C43.65 25.28 42.67 23.81 41.43 22.57C40.19 21.33 38.72 20.35 37.1 19.68C35.48 19.01 33.75 18.67 32 18.67C30.27 18.67 28.64 19.01 27.12 19.6ZM32 24C33.05 24 34.09 24.21 35.06 24.61C36.03 25.01 36.91 25.6 37.66 26.34C38.4 27.09 38.99 27.97 39.39 28.94C39.79 29.91 40 30.95 40 32C40 32.13 40 32.29 40 32.43L31.55 24C31.71 24 31.84 24 32 24Z" /></svg>