<svg xmlns="http://www.w3.org/2000/svg" viewBox="0 0 64 64" width="64" height="64"><style>tspan { white-space:pre }.shp0 { fill: #ffffff } </style><path fill-rule="evenodd" class="shp0" d="M61.33 32C56.72 43.71 45.33 52 32 52C18.67 52 7.28 43.71 2.67 32C7.28 20.29 18.67 12 32 12C45.33 12 56.72 20.29 61.33 32ZM37.1 44.32C38.72 43.65 40.19 42.67 41.43 41.43C42.67 40.19 43.65 38.72 44.32 37.1C44.99 35.48 45.33 33.75 45.33 32C45.33 30.25 44.99 28.52 44.32 26.9C43.65 25.28 42.67 23.81 41.43 22.57C40.19 21.33 38.72 20.35 37.1 19.68C35.48 19.01 33.75 18.67 32 18.67C30.25 18.67 28.52 19.01 26.9 19.68C25.28 20.35 23.81 21.33 22.57 22.57C21.33 23.81 20.35 25.28 19.68 26.9C19.01 28.52 18.67 30.25 18.67 32C18.67 33.75 19.01 35.48 19.68 37.1C20.35 38.72 21.33 40.19 22.57 41.43C23.81 42.67 25.28 43.65 26.9 44.32C28.52 44.99 30.25 45.33 32 45.33C33.75 45.33 35.48 44.99 37.1 44.32ZM35.06 24.61C36.03 25.01 36.91 25.6 37.66 26.34C38.4 27.09 38.99 27.97 39.39 28.94C39.79 29.91 40 30.95 40 32C40 33.05 39.79 34.09 39.39 35.06C38.99 36.03 38.4 36.91 37.66 37.66C36.91 38.4 36.03 38.99 35.06 39.39C34.09 39.79 33.05 40 32 40C30.95 40 29.91 39.79 28.94 39.39C27.97 38.99 27.09 38.4 26.34 37.66C25.6 36.91 25.01 36.03 24.61 35.06C24.21 34.09 24 33.05 24 32C24 30.95 24.21 29.91 24.61 28.94C25.01 27.97 25.6 27.09 26.34 26.34C27.09 25.6 27.97 25.01 28.94 24.61C29.91 24.21 30.95 24 32 24C33.05 24 34.09 24.21 35.06 24.61Z" /></svg>