<svg xmlns="http://www.w3.org/2000/svg" viewBox="0 0 112 64" width="112" height="64"><style>tspan { white-space:pre }.shp0 { fill: #ffffff } </style><path fill-rule="evenodd" class="shp0" d="M99 8C99.7 8 100.39 8.14 101.04 8.41C101.68 8.67 102.27 9.07 102.77 9.56C103.26 10.06 103.66 10.65 103.92 11.29C104.19 11.94 104.33 12.63 104.33 13.33L104.33 50.67C104.33 51.37 104.19 52.06 103.92 52.71C103.66 53.35 103.26 53.94 102.77 54.44C102.27 54.93 101.68 55.33 101.04 55.59C100.39 55.86 99.7 56 99 56L13.33 56C12.63 56 11.94 55.86 11.29 55.59C10.65 55.33 10.06 54.93 9.56 54.44C9.07 53.94 8.67 53.35 8.41 52.71C8.14 52.06 8 51.37 8 50.67L8 13.33C8 12.63 8.14 11.94 8.41 11.29C8.67 10.65 9.07 10.06 9.56 9.56C10.06 9.07 10.65 8.67 11.29 8.41C11.94 8.14 12.63 8 13.33 8L99 8ZM37.33 18.67L26.67 18.67L26.67 24L32 24L32 45.33L37.33 45.33L37.33 18.67ZM77.33 45.33L88 24L88 18.67L72 18.67L72 24L82.67 24L72 45.33L77.33 45.33ZM65 29L46 29L46 34L65 34L65 29Z" /></svg>