<svg xmlns="http://www.w3.org/2000/svg" viewBox="0 0 112 64" width="112" height="64"><style>tspan { white-space:pre }.shp0 { fill: #ffffff } </style><path fill-rule="evenodd" class="shp0" d="M99 8C99.7 8 100.39 8.14 101.04 8.41C101.68 8.67 102.27 9.07 102.77 9.56C103.26 10.06 103.66 10.65 103.92 11.29C104.19 11.94 104.33 12.63 104.33 13.33L104.33 50.67C104.33 51.37 104.19 52.06 103.92 52.71C103.66 53.35 103.26 53.94 102.77 54.44C102.27 54.93 101.68 55.33 101.04 55.59C100.39 55.86 99.7 56 99 56L13.33 56C12.63 56 11.94 55.86 11.29 55.59C10.65 55.33 10.06 54.93 9.56 54.44C9.07 53.94 8.67 53.35 8.41 52.71C8.14 52.06 8 51.37 8 50.67L8 13.33C8 12.63 8.14 11.94 8.41 11.29C8.67 10.65 9.07 10.06 9.56 9.56C10.06 9.07 10.65 8.67 11.29 8.41C11.94 8.14 12.63 8 13.33 8L99 8ZM77.33 45.33L88 24L88 18.67L72 18.67L72 24L82.67 24L72 45.33L77.33 45.33ZM65 29L46 29L46 34L65 34L65 29ZM29.33 18.67C28.63 18.67 27.94 18.8 27.29 19.07C26.65 19.34 26.06 19.73 25.56 20.23C25.07 20.72 24.67 21.31 24.41 21.96C24.14 22.61 24 23.3 24 24L24 40C24 40.7 24.14 41.39 24.41 42.04C24.67 42.69 25.07 43.28 25.56 43.77C26.06 44.27 26.65 44.66 27.29 44.93C27.94 45.2 28.63 45.33 29.33 45.33L34.67 45.33C35.37 45.33 36.06 45.2 36.71 44.93C37.35 44.66 37.94 44.27 38.44 43.77C38.93 43.28 39.33 42.69 39.59 42.04C39.86 41.39 40 40.7 40 40L40 24C40 23.3 39.86 22.61 39.59 21.96C39.33 21.31 38.93 20.72 38.44 20.23C37.94 19.73 37.35 19.34 36.71 19.07C36.06 18.8 35.37 18.67 34.67 18.67L29.33 18.67ZM29.33 24L34.67 24L34.67 40L29.33 40L29.33 24Z" /></svg>