<svg xmlns="http://www.w3.org/2000/svg" viewBox="0 0 64 64" width="64" height="64"><style>tspan { white-space:pre }.shp0 { fill: #ffffff } </style><path fill-rule="evenodd" class="shp0" d="M50.67 8C51.37 8 52.06 8.14 52.71 8.41C53.35 8.67 53.94 9.07 54.44 9.56C54.93 10.06 55.33 10.65 55.59 11.29C55.86 11.94 56 12.63 56 13.33L56 50.67C56 53.6 53.63 56 50.67 56L13.33 56C12.63 56 11.94 55.86 11.29 55.59C10.65 55.33 10.06 54.93 9.56 54.44C9.07 53.94 8.67 53.35 8.41 52.71C8.14 52.06 8 51.37 8 50.67L8 13.33C8 10.4 10.43 8 13.33 8L50.67 8ZM40 24C40 21.04 37.63 18.67 34.67 18.67L24 18.67L24 24L34.67 24L34.67 29.33L29.33 29.33L29.33 34.67L34.67 34.67L34.67 40L24 40L24 45.33L34.67 45.33C37.63 45.33 40 42.96 40 40L40 36C40 33.79 38.24 32 36 32C36.53 32 37.05 31.9 37.53 31.7C38.02 31.49 38.46 31.2 38.83 30.83C39.2 30.46 39.49 30.02 39.7 29.53C39.9 29.05 40 28.53 40 28L40 24Z" /></svg>