<svg version="1.2" baseProfile="tiny-ps" xmlns="http://www.w3.org/2000/svg" viewBox="0 0 64 64" width="64" height="64"><title>pan-right</title><style>tspan { white-space:pre }.shp0 { fill: #ffffff } </style><path class="shp0" d="M45.33 21.33L45.33 42.67L57.33 32L45.33 21.33ZM32 26.67C31.3 26.67 30.61 26.8 29.96 27.07C29.31 27.34 28.72 27.73 28.23 28.23C27.73 28.72 27.34 29.31 27.07 29.96C26.8 30.61 26.67 31.3 26.67 32C26.67 32.7 26.8 33.39 27.07 34.04C27.34 34.69 27.73 35.28 28.23 35.77C28.72 36.27 29.31 36.66 29.96 36.93C30.61 37.2 31.3 37.33 32 37.33C32.7 37.33 33.39 37.2 34.04 36.93C34.69 36.66 35.28 36.27 35.77 35.77C36.27 35.28 36.66 34.69 36.93 34.04C37.2 33.39 37.33 32.7 37.33 32C37.33 31.3 37.2 30.61 36.93 29.96C36.66 29.31 36.27 28.72 35.77 28.23C35.28 27.73 34.69 27.34 34.04 27.07C33.39 26.8 32.7 26.67 32 26.67Z" /></svg>