<svg version="1.2" baseProfile="tiny-ps" xmlns="http://www.w3.org/2000/svg" viewBox="0 0 64 64" width="64" height="64"><title>play-circle-svg</title><style>tspan { white-space:pre }.shp0 { fill: #ffffff } </style><path fill-rule="evenodd" class="shp0" d="M32 5.33C35.5 5.33 38.97 6.02 42.2 7.36C45.44 8.7 48.38 10.67 50.86 13.14C53.33 15.62 55.3 18.56 56.64 21.8C57.98 25.03 58.67 28.5 58.67 32C58.67 35.5 57.98 38.97 56.64 42.2C55.3 45.44 53.33 48.38 50.86 50.86C48.38 53.33 45.44 55.3 42.2 56.64C38.97 57.98 35.5 58.67 32 58.67C28.5 58.67 25.03 57.98 21.8 56.64C18.56 55.3 15.62 53.33 13.14 50.86C10.67 48.38 8.7 45.44 7.36 42.2C6.02 38.97 5.33 35.5 5.33 32C5.33 28.5 6.02 25.03 7.36 21.8C8.7 18.56 10.67 15.62 13.14 13.14C15.62 10.67 18.56 8.7 21.8 7.36C25.03 6.02 28.5 5.33 32 5.33ZM42.67 32L26.67 20L26.67 44L42.67 32Z" /></svg>