<svg version="1.2" baseProfile="tiny-ps" xmlns="http://www.w3.org/2000/svg" viewBox="0 0 64 64" width="64" height="64"><title>alpha-w-box-svg</title><style>tspan { white-space:pre }.shp0 { fill: #ffffff } </style><path fill-rule="evenodd" class="shp0" d="M50.67 8C51.37 8 52.06 8.14 52.71 8.41C53.35 8.67 53.94 9.07 54.44 9.56C54.93 10.06 55.33 10.65 55.59 11.29C55.86 11.94 56 12.63 56 13.33L56 50.67C56 51.37 55.86 52.06 55.59 52.71C55.33 53.35 54.93 53.94 54.44 54.44C53.94 54.93 53.35 55.33 52.71 55.59C52.06 55.86 51.37 56 50.67 56L13.33 56C12.63 56 11.94 55.86 11.29 55.59C10.65 55.33 10.06 54.93 9.56 54.44C9.07 53.94 8.67 53.35 8.41 52.71C8.14 52.06 8 51.37 8 50.67L8 13.33C8 12.63 8.14 11.94 8.41 11.29C8.67 10.65 9.07 10.06 9.56 9.56C10.06 9.07 10.65 8.67 11.29 8.41C11.94 8.14 12.63 8 13.33 8L50.67 8ZM24 45.33L40 45.33C40.7 45.33 41.39 45.2 42.04 44.93C42.69 44.66 43.28 44.27 43.77 43.77C44.27 43.28 44.66 42.69 44.93 42.04C45.2 41.39 45.33 40.7 45.33 40L45.33 18.67L40 18.67L40 40L34.67 40L34.67 21.33L29.33 21.33L29.33 40L24 40L24 18.67L18.67 18.67L18.67 40C18.67 40.7 18.8 41.39 19.07 42.04C19.34 42.69 19.73 43.28 20.23 43.77C20.72 44.27 21.31 44.66 21.96 44.93C22.61 45.2 23.3 45.33 24 45.33Z" /></svg>