<svg version="1.2" baseProfile="tiny-ps" xmlns="http://www.w3.org/2000/svg" viewBox="0 0 64 64" width="64" height="64"><title>alpha-s-box-svg</title><style>tspan { white-space:pre }.shp0 { fill: #ffffff } </style><path fill-rule="evenodd" class="shp0" d="M50.67 8C51.37 8 52.06 8.14 52.71 8.41C53.35 8.67 53.94 9.07 54.44 9.56C54.93 10.06 55.33 10.65 55.59 11.29C55.86 11.94 56 12.63 56 13.33L56 50.67C56 51.37 55.86 52.06 55.59 52.71C55.33 53.35 54.93 53.94 54.44 54.44C53.94 54.93 53.35 55.33 52.71 55.59C52.06 55.86 51.37 56 50.67 56L13.33 56C12.63 56 11.94 55.86 11.29 55.59C10.65 55.33 10.06 54.93 9.56 54.44C9.07 53.94 8.67 53.35 8.41 52.71C8.14 52.06 8 51.37 8 50.67L8 13.33C8 12.63 8.14 11.94 8.41 11.29C8.67 10.65 9.07 10.06 9.56 9.56C10.06 9.07 10.65 8.67 11.29 8.41C11.94 8.14 12.63 8 13.33 8L50.67 8ZM29.33 18.67C28.63 18.67 27.94 18.8 27.29 19.07C26.65 19.34 26.06 19.73 25.56 20.23C25.07 20.72 24.67 21.31 24.41 21.96C24.14 22.61 24 23.3 24 24L24 29.33C24 30.03 24.14 30.73 24.41 31.37C24.67 32.02 25.07 32.61 25.56 33.1C26.06 33.6 26.65 33.99 27.29 34.26C27.94 34.53 28.63 34.67 29.33 34.67L34.67 34.67L34.67 40L24 40L24 45.33L34.67 45.33C35.37 45.33 36.06 45.2 36.71 44.93C37.35 44.66 37.94 44.27 38.44 43.77C38.93 43.28 39.33 42.69 39.59 42.04C39.86 41.39 40 40.7 40 40L40 34.67C40 33.97 39.86 33.27 39.59 32.63C39.33 31.98 38.93 31.39 38.44 30.9C37.94 30.4 37.35 30.01 36.71 29.74C36.06 29.47 35.37 29.33 34.67 29.33L29.33 29.33L29.33 24L40 24L40 18.67L29.33 18.67Z" /></svg>