<svg version="1.2" baseProfile="tiny-ps" xmlns="http://www.w3.org/2000/svg" viewBox="0 0 64 64" width="64" height="64"><title>alpha-a-box-svg</title><style>tspan { white-space:pre }.shp0 { fill: #ffffff } </style><path fill-rule="evenodd" class="shp0" d="M8 13.33C8 12.63 8.14 11.94 8.41 11.29C8.67 10.65 9.07 10.06 9.56 9.56C10.06 9.07 10.65 8.67 11.29 8.41C11.94 8.14 12.63 8 13.33 8L50.67 8C51.37 8 52.06 8.14 52.71 8.41C53.35 8.67 53.94 9.07 54.44 9.56C54.93 10.06 55.33 10.65 55.59 11.29C55.86 11.94 56 12.63 56 13.33L56 50.67C56 51.37 55.86 52.06 55.59 52.71C55.33 53.35 54.93 53.94 54.44 54.44C53.94 54.93 53.35 55.33 52.71 55.59C52.06 55.86 51.37 56 50.67 56L13.33 56C10.37 56 8 53.6 8 50.67L8 13.33ZM29.33 18.67C28.63 18.67 27.94 18.8 27.29 19.07C26.65 19.34 26.06 19.73 25.56 20.23C25.07 20.72 24.67 21.31 24.41 21.96C24.14 22.61 24 23.3 24 24L24 45.33L29.33 45.33L29.33 34.67L34.67 34.67L34.67 45.33L40 45.33L40 24C40 23.3 39.86 22.61 39.59 21.96C39.33 21.31 38.93 20.72 38.44 20.23C37.94 19.73 37.35 19.34 36.71 19.07C36.06 18.8 35.37 18.67 34.67 18.67L29.33 18.67ZM29.33 24L34.67 24L34.67 29.33L29.33 29.33L29.33 24Z" /></svg>