<svg version="1.2" baseProfile="tiny-ps" xmlns="http://www.w3.org/2000/svg" viewBox="0 0 64 64" width="64" height="64"><title>alpha-d-box-svg</title><style>tspan { white-space:pre }.shp0 { fill: #ffffff } </style><path fill-rule="evenodd" class="shp0" d="M50.67 8C51.37 8 52.06 8.14 52.71 8.41C53.35 8.67 53.94 9.07 54.44 9.56C54.93 10.06 55.33 10.65 55.59 11.29C55.86 11.94 56 12.63 56 13.33L56 50.67C56 51.37 55.86 52.06 55.59 52.71C55.33 53.35 54.93 53.94 54.44 54.44C53.94 54.93 53.35 55.33 52.71 55.59C52.06 55.86 51.37 56 50.67 56L13.33 56C12.63 56 11.94 55.86 11.29 55.59C10.65 55.33 10.06 54.93 9.56 54.44C9.07 53.94 8.67 53.35 8.41 52.71C8.14 52.06 8 51.37 8 50.67L8 13.33C8 12.63 8.14 11.94 8.41 11.29C8.67 10.65 9.07 10.06 9.56 9.56C10.06 9.07 10.65 8.67 11.29 8.41C11.94 8.14 12.63 8 13.33 8L50.67 8ZM24 18.67L24 45.33L34.67 45.33C35.37 45.33 36.06 45.2 36.71 44.93C37.35 44.66 37.94 44.27 38.44 43.77C38.93 43.28 39.33 42.69 39.59 42.04C39.86 41.39 40 40.7 40 40L40 24C40 23.3 39.86 22.61 39.59 21.96C39.33 21.31 38.93 20.72 38.44 20.23C37.94 19.73 37.35 19.34 36.71 19.07C36.06 18.8 35.37 18.67 34.67 18.67L24 18.67ZM29.33 24L34.67 24L34.67 40L29.33 40L29.33 24Z" /></svg>