<svg version="1.2" baseProfile="tiny-ps" xmlns="http://www.w3.org/2000/svg" viewBox="0 0 64 64" width="64" height="64"><title>arrow-right-bold-box-svg</title><style>tspan { white-space:pre }.shp0 { fill: #ffffff } </style><path fill-rule="evenodd" class="shp0" d="M8 50.67L8 13.33C8 12.63 8.14 11.94 8.41 11.29C8.67 10.65 9.07 10.06 9.56 9.56C10.06 9.07 10.65 8.67 11.29 8.41C11.94 8.14 12.63 8 13.33 8L50.67 8C51.37 8 52.06 8.14 52.71 8.41C53.35 8.67 53.94 9.07 54.44 9.56C54.93 10.06 55.33 10.65 55.59 11.29C55.86 11.94 56 12.63 56 13.33L56 50.67C56 51.37 55.86 52.06 55.59 52.71C55.33 53.35 54.93 53.94 54.44 54.44C53.94 54.93 53.35 55.33 52.71 55.59C52.06 55.86 51.37 56 50.67 56L13.33 56C12.63 56 11.94 55.86 11.29 55.59C10.65 55.33 10.06 54.93 9.56 54.44C9.07 53.94 8.67 53.35 8.41 52.71C8.14 52.06 8 51.37 8 50.67ZM45.33 32L32 18.67L32 26.67L21.33 26.67L21.33 37.33L32 37.33L32 45.33L45.33 32Z" /></svg>